<svg width="31" height="31" viewBox="0 0 31 31" fill="none" xmlns="http://www.w3.org/2000/svg">
<g clip-path="url(#clip0_1_73)">
<path d="M19.311 16.5902C18.4535 14.5819 16.6561 13.1668 14.5027 12.8049C12.3494 12.4431 10.1881 13.1931 8.7215 14.8109L5.18696 18.709C4.60054 19.3557 4.24544 20.1571 4.16002 21.0259C4.07458 21.895 4.26705 22.7499 4.71641 23.4989C5.16626 24.2474 5.83082 24.819 6.63819 25.152C7.44555 25.485 8.32003 25.5476 9.16686 25.3335L9.22361 25.319C11.3515 24.7976 13.6176 25.1865 15.4505 26.3894C15.9233 26.6996 16.4452 26.904 16.991 26.9957C17.2877 27.0456 17.5919 27.0621 17.899 27.0444C18.7709 26.9937 19.5857 26.6707 20.2557 26.1102C20.9253 25.5499 21.3869 24.8046 21.5904 23.9552C21.7939 23.1058 21.7202 22.2326 21.3774 21.4294L19.311 16.5902Z" fill="#F4CB38"/>
<path d="M6.67631 14.4613C7.5632 14.2813 8.30893 13.7163 8.77607 12.8703C9.22073 12.0653 9.35841 11.0952 9.16358 10.1386C8.96845 9.18247 8.46225 8.3437 7.7382 7.77649C6.97759 7.18086 6.07042 6.95224 5.18481 7.13308C3.40338 7.49526 2.28802 9.43405 2.69854 11.456C3.02738 13.0657 4.22645 14.2484 5.60086 14.4794C5.9518 14.5383 6.31419 14.5352 6.67631 14.4613Z" fill="#F4CB38"/>
<path d="M12.6852 11.9517C14.7771 12.3032 16.8048 10.6502 17.2052 8.26691C17.6058 5.88303 16.2298 3.65771 14.1379 3.30621C12.0463 2.95474 10.0187 4.60813 9.61813 6.99201C9.21765 9.3753 10.5935 11.6002 12.6852 11.9517Z" fill="#F4CB38"/>
<path d="M19.0586 14.1145L19.0588 14.1145C19.3626 14.2754 19.6824 14.3816 20.0093 14.4365C21.5348 14.6928 23.2081 13.8323 24.0621 12.2212C24.5539 11.2938 24.7069 10.2516 24.493 9.28665C24.2693 8.27652 23.6755 7.47084 22.8208 7.01784C21.9659 6.5648 20.9657 6.5258 20.0042 6.90763C19.0856 7.27237 18.3092 7.98416 17.8178 8.91161C16.7809 10.868 17.3376 13.202 19.0586 14.1145Z" fill="#F4CB38"/>
<path d="M27.1327 14.9525L27.1322 14.9518C25.8686 13.6438 23.6336 13.7431 22.1493 15.1738C20.6662 16.6054 20.4858 18.8349 21.7471 20.1433C22.207 20.6208 22.7964 20.9111 23.4317 21.0178C24.5389 21.2039 25.7858 20.8323 26.7305 19.9225C28.2135 18.4908 28.394 16.2614 27.1327 14.9525Z" fill="#F4CB38"/>
</g>
<defs>
<clipPath id="clip0_1_73">
<rect width="26.1895" height="26.1895" fill="white" transform="translate(4.33987) rotate(9.53851)"/>
</clipPath>
</defs>
</svg>
